<?xml version="1.0" standalone="no"?>
<!DOCTYPE svg PUBLIC "-//W3C//DTD SVG 20010904//EN"
 "http://www.w3.org/TR/2001/REC-SVG-20010904/DTD/svg10.dtd">
<svg version="1.0" xmlns="http://www.w3.org/2000/svg"
 width="48.000000pt" height="48.000000pt" viewBox="0 0 48.000000 48.000000"
 preserveAspectRatio="xMidYMid meet">

<g transform="translate(0.000000,48.000000) scale(0.100000,-0.100000)"
fill="#000000" stroke="none">
<path d="M135 437 c-81 -46 -127 -143 -111 -230 10 -54 60 -124 105 -147 49
-25 51 -25 51 -1 0 11 -9 21 -24 25 -27 7 -85 76 -63 76 8 0 22 -9 32 -20 20
-22 65 -27 65 -7 0 7 -16 21 -35 30 -40 19 -59 57 -51 102 16 97 21 110 41
106 26 -6 164 -6 190 0 16 3 21 -4 28 -36 25 -119 18 -150 -43 -175 -25 -10
-30 -17 -26 -34 3 -12 6 -36 6 -54 0 -30 2 -33 23 -27 68 21 137 119 137 195
0 86 -46 162 -121 201 -55 27 -151 26 -204 -4z"/>
</g>
</svg>
